<?xml version="1.0" encoding="UTF-8" standalone="no"?>
<!DOCTYPE svg PUBLIC "-//W3C//DTD SVG 1.1//EN" "http://www.w3.org/Graphics/SVG/1.1/DTD/svg11.dtd">
<!-- Created with Vectornator (http://vectornator.io/) -->
<svg height="653.6457142857143pt" stroke-miterlimit="10" style="fill-rule:nonzero;clip-rule:evenodd;stroke-linecap:round;stroke-linejoin:round;" version="1.1" viewBox="0 0 626.097 653.646" width="626.0971428571428pt" xml:space="preserve" xmlns="http://www.w3.org/2000/svg" xmlns:xlink="http://www.w3.org/1999/xlink">
<defs/>
<g id="Layer-1">
<path d="M18.7695 631.369C18.7695 631.369 608.434 631.369 608.434 631.369C608.434 592.84 585.115 592.114 585.115 592.114L44.5089 592.114C18.7695 592.114 18.7695 631.369 18.7695 631.369Z" fill="#5677a0" fill-rule="nonzero" opacity="1" stroke="#303642" stroke-linecap="butt" stroke-linejoin="round" stroke-width="20"/>
<path d="M55.7199 592.114C55.7199 592.114 55.7199 430.417 55.7199 268.4C55.7199 106.382 192.066 18.4324 314.606 18.4324C437.146 18.4324 577.066 125.484 575.425 268.4C573.783 411.315 575.425 592.114 575.425 592.114L535.113 592.114C535.113 592.114 535.113 382.602 535.113 268.4C535.113 154.197 421.579 62.7186 313.602 62.7186C205.625 62.7186 99.8354 149.573 99.8354 268.4C99.8354 387.227 99.8354 592.114 99.8354 592.114L55.7199 592.114Z" fill="#5476a0" fill-rule="nonzero" opacity="1" stroke="#303642" stroke-linecap="butt" stroke-linejoin="round" stroke-width="20"/>
<path d="M98.4899 592.114C98.4899 592.114 98.4899 454.451 98.4899 275.288C98.4899 148.486 212.636 65.5555 315.572 65.5555C417.175 65.5555 533.767 158.409 533.767 275.288C533.767 392.168 533.767 592.114 533.767 592.114C533.767 592.114 495.379 592.114 494.871 592.114C494.363 592.114 494.871 365.414 494.871 275.288C494.871 185.163 401.91 103.536 315.572 103.536C229.234 103.536 137.84 174.78 137.84 275.288C137.84 375.797 137.84 592.114 137.84 592.114L98.4899 592.114Z" fill="#4a627e" fill-rule="nonzero" opacity="1" stroke="#303642" stroke-linecap="butt" stroke-linejoin="round" stroke-width="20"/>
<path d="M55.7199 323.055L30.5462 274.111L159.692 274.111L137.869 323.055L55.7199 323.055Z" fill="#5677a0" fill-rule="nonzero" opacity="1" stroke="#303642" stroke-linecap="butt" stroke-linejoin="round" stroke-width="20"/>
<path d="M494.368 323.055L469.194 274.111L598.34 274.111L576.517 323.055L494.368 323.055Z" fill="#5677a0" fill-rule="nonzero" opacity="1" stroke="#303642" stroke-linecap="butt" stroke-linejoin="round" stroke-width="20"/>
<path d="M179.238 363.377C266.171 337.006 272.759 328.404 293.65 246.384C320.322 327.275 322.628 341.968 410.712 362.12C326.618 386.202 317.677 394.256 295.664 477.972C272.277 399.12 270.103 389.597 179.238 363.377Z" fill="#394858" fill-rule="nonzero" opacity="1" stroke="#394858" stroke-linecap="butt" stroke-linejoin="round" stroke-width="10"/>
<path d="M344.951 260.239C376.494 250.671 378.884 247.55 386.464 217.79C396.142 247.14 396.978 252.471 428.938 259.783C398.426 268.521 395.182 271.443 387.195 301.818C378.709 273.208 377.92 269.753 344.951 260.239Z" fill="#394858" fill-rule="nonzero" opacity="1" stroke="#394858" stroke-linecap="butt" stroke-linejoin="round" stroke-width="3.62835"/>
<path d="M339.36 474.521C385.27 460.595 388.749 456.052 399.782 412.737C413.867 455.456 415.085 463.215 461.602 473.857C417.192 486.575 412.47 490.829 400.845 535.039C388.495 493.397 387.346 488.368 339.36 474.521Z" fill="#394858" fill-rule="nonzero" opacity="1" stroke="#394858" stroke-linecap="butt" stroke-linejoin="round" stroke-width="5.28102"/>
<path d="M186.787 460.457C212.27 452.727 214.201 450.205 220.325 426.163C228.143 449.874 228.819 454.181 254.639 460.088C229.989 467.147 227.368 469.508 220.915 494.048C214.06 470.934 213.422 468.142 186.787 460.457Z" fill="#394858" fill-rule="nonzero" opacity="1" stroke="#394858" stroke-linecap="butt" stroke-linejoin="round" stroke-width="2.93128"/>
</g>
</svg>
